<svg xmlns="http://www.w3.org/2000/svg" viewBox="0 0 1920 1080"><title>Artboard 1</title><rect width="1920" height="1080" style="fill:#5a1b16"/><path d="M1920-.08v1081.4H0V1004c21.52-35.43,49.93-62.32,62.47-72.11,135-105.2,314.65-141.48,490.2-128.17,75.15,5.72,142.44,8.3,178.1-65.88,19.76-41,25.57-87.95,52-125.64,41.81-59.46,124.14-81.85,177.87-132.4,61.71-58,77.91-145,83-226.44,5.9-94.2,5.26-245.86,120-280.21,102.92-30.83,227.41,3.73,290.78,3.73,136,0,196.68-26.83,314.59-26.83C1832-50,1876.85-40.17,1920-.08Z" style="fill:#fff"/></svg>