<svg xmlns="http://www.w3.org/2000/svg" xmlns:xlink="http://www.w3.org/1999/xlink" viewBox="0 0 213.09 190.02"><defs><clipPath id="a"><path d="M174.29,98.17l12.1-49.43L140.65,21.63,84.87,42.37l42.8,55.85S163,118.36,162.81,119s25.62-15.28,25.62-15.28Z" style="fill:none"/></clipPath></defs><title>Asset 1</title><path d="M128,166,52,122.15c-2.15-1.24-1.88-3.41.61-4.84l51.76-29.88c2.48-1.43,6.24-1.59,8.39-.35l76,43.89c2.15,1.24,1.88,3.41-.6,4.85l-51.77,29.87C133.89,167.13,130.13,167.28,128,166Z" style="fill:#97867f;opacity:0.5"/><path d="M210,46.16,130.94.49a3.21,3.21,0,0,0-2.68-.33h0l-.14.06h0l-2.86,1.09,2.57,1.26c0,.05,0,.09,0,.14L114.87,61.36c-.65,2.93.65,6.36,2.88,7.65L195,113.58l-.27,3.27,3.12-1.21a4.39,4.39,0,0,0,2.24-3.18l12.88-58.65C213.57,50.88,212.28,47.45,210,46.16Z" style="fill:#b3836f"/><path d="M210,46.16,130.94.49a3.21,3.21,0,0,0-2.68-.33h0l-.14.06h0l-2.86,1.09,2.57,1.26c0,.05,0,.09,0,.14l-8.49,38.65L158,71.52l54.58-22.21A6.19,6.19,0,0,0,210,46.16Z" style="fill:#b3836f"/><path d="M207.06,55.17l6-2.56a7.57,7.57,0,0,0-2.44-6l-9.53,4Z" style="fill:#b3836f"/><path d="M191.93,116.54l-79.1-45.67c-2.24-1.29-3.53-4.71-2.89-7.65L122.83,4.57c.64-2.93,3-4.27,5.22-3l79.1,45.67c2.24,1.29,3.53,4.71,2.88,7.65l-12.88,58.65C196.5,116.5,194.17,117.84,191.93,116.54Z" style="fill:#b3836f"/><path d="M207.91,47,128.81,1.32a3.13,3.13,0,0,0-3.12-.14,3.24,3.24,0,0,1,2.36.42l79.1,45.67c2.24,1.29,3.53,4.71,2.88,7.65l-12.88,58.65a4.45,4.45,0,0,1-2.11,3.11,4.08,4.08,0,0,0,2.87-3.39l12.88-58.65C211.44,51.71,210.15,48.28,207.91,47Z" style="fill:#fff"/><path d="M190.21,112.18,115.82,69.25c-2-1.18-3.23-4.32-2.64-7L125,8.58c.59-2.69,2.73-3.91,4.78-2.72l74.39,42.93c2.05,1.18,3.23,4.31,2.64,7L195,109.46C194.4,112.14,192.26,113.36,190.21,112.18Z" style="fill:#895a49"/><path d="M190.21,112.18,115.82,69.25c-2-1.18-3.23-4.32-2.64-7L125,8.58c.59-2.69,2.73-3.91,4.78-2.72l74.39,42.93c2.05,1.18,3.23,4.31,2.64,7L195,109.46C194.4,112.14,192.26,113.36,190.21,112.18Z" style="fill:#895a49"/><path d="M190.86,111.92,116.47,69c-2-1.18-3.23-4.32-2.64-7L125.62,8.31a4.16,4.16,0,0,1,1.87-2.82A3.8,3.8,0,0,0,125,8.58L113.18,62.25c-.59,2.68.59,5.82,2.64,7l74.39,42.93a2.85,2.85,0,0,0,2.91.1A3,3,0,0,1,190.86,111.92Z" style="fill:#895a49"/><path d="M193,118.53l-10.81-1.42-69.8-40.3c-2.24-1.29-6.15-1.13-8.73.36L54.22,105.71l-6.54-.86v3.71h0a2.54,2.54,0,0,0,1.5,2.29l79.1,45.67c2.24,1.29,6.15,1.13,8.73-.36l53.87-31.09c1.45-.84,2.17-1.92,2.13-2.93h0Z" style="fill:#b3836f"/><path d="M140.58,93.07l-5-2.86H81.1l-26.88,15.5-6.54-.86v3.71h0a2.54,2.54,0,0,0,1.5,2.29l79.1,45.67a8.24,8.24,0,0,0,4.51.85Z" style="fill:#b3836f"/><path d="M50.58,105.23l-2.9-.38v3.71h0a2.54,2.54,0,0,0,1.5,2.29l1.39.81Z" style="fill:#b3836f"/><path d="M129.09,156.89a10.11,10.11,0,0,0,7.42-.46v-8.27h-7.42Z" style="fill:#b3836f"/><path d="M128.29,152.82l-79.1-45.67c-2.24-1.29-2-3.55.63-5L103.68,71c2.58-1.49,6.49-1.65,8.73-.36l79.1,45.67c2.24,1.29,2,3.55-.62,5L137,152.45C134.44,154,130.53,154.11,128.29,152.82Z" style="fill:#b3836f"/><path d="M190.89,120,137,151.1c-2.58,1.49-6.49,1.65-8.73.36l-79.1-45.67a2.94,2.94,0,0,1-1.39-1.52,2.4,2.4,0,0,0,1.39,2.88l79.1,45.67c2.24,1.29,6.15,1.13,8.73-.37l53.87-31.08c1.73-1,2.42-2.35,2-3.52A4.21,4.21,0,0,1,190.89,120Z" style="fill:#fff"/><path d="M82.83,92,79.25,90c-.28-.16-.25-.45.09-.65l4.22-2.43a1.21,1.21,0,0,1,1.12,0l3.58,2.07c.29.16.25.45-.08.64L84,92A1.27,1.27,0,0,1,82.83,92Z" style="fill:#f2e2df"/><path d="M88.36,95.22l-3.58-2.07c-.29-.16-.25-.45.08-.64l4.23-2.44a1.21,1.21,0,0,1,1.12,0l3.58,2.07c.28.16.25.45-.08.64l-4.23,2.44A1.27,1.27,0,0,1,88.36,95.22Z" style="fill:#f2e2df"/><path d="M93.89,98.41l-3.58-2.07c-.29-.16-.25-.45.08-.64l4.22-2.44a1.26,1.26,0,0,1,1.13-.05l3.57,2.07c.29.16.26.45-.08.64L95,98.36A1.21,1.21,0,0,1,93.89,98.41Z" style="fill:#f2e2df"/><path d="M101.53,95.77,98,93.71c-.28-.17-.25-.46.08-.65l3.55-2a1.23,1.23,0,0,1,1.12,0L106.28,93c.29.17.25.46-.08.65l-3.55,2A1.23,1.23,0,0,1,101.53,95.77Z" style="fill:#f2e2df"/><path d="M107.06,99l-3.58-2.07c-.29-.17-.25-.46.08-.65l3.55-2a1.23,1.23,0,0,1,1.12,0l3.58,2.06c.28.17.25.46-.08.65l-3.55,2A1.27,1.27,0,0,1,107.06,99Z" style="fill:#f2e2df"/><path d="M112.59,102.16,109,100.09c-.29-.17-.25-.46.08-.65l3.54-2a1.23,1.23,0,0,1,1.13-.05l3.57,2.07c.29.16.26.45-.08.64l-3.54,2A1.27,1.27,0,0,1,112.59,102.16Z" style="fill:#f2e2df"/><path d="M118.11,105.35l-3.58-2.07c-.28-.16-.25-.45.09-.65l3.54-2a1.24,1.24,0,0,1,1.12,0l3.58,2.07c.29.16.25.45-.08.64l-3.55,2A1.27,1.27,0,0,1,118.11,105.35Z" style="fill:#f2e2df"/><path d="M123.64,108.54l-3.58-2.07c-.29-.16-.25-.45.08-.64l3.55-2a1.27,1.27,0,0,1,1.12,0l3.58,2.07c.29.16.25.45-.08.65l-3.55,2A1.27,1.27,0,0,1,123.64,108.54Z" style="fill:#f2e2df"/><path d="M129.17,111.73l-3.58-2.07c-.29-.16-.25-.45.08-.64l3.55-2a1.27,1.27,0,0,1,1.12,0l3.58,2.07c.28.16.25.45-.08.65l-3.55,2A1.21,1.21,0,0,1,129.17,111.73Z" style="fill:#f2e2df"/><path d="M134.7,114.92l-3.58-2.07c-.29-.16-.26-.45.08-.64l3.54-2a1.27,1.27,0,0,1,1.12,0l3.58,2.07c.29.17.25.46-.08.65l-3.54,2A1.21,1.21,0,0,1,134.7,114.92Z" style="fill:#f2e2df"/><path d="M140.22,118.11l-3.58-2.06c-.28-.17-.25-.46.08-.65l3.55-2.05a1.27,1.27,0,0,1,1.12,0l3.58,2.07c.29.17.25.46-.08.65l-3.55,2A1.23,1.23,0,0,1,140.22,118.11Z" style="fill:#f2e2df"/><path d="M145.75,121.3l-3.58-2.06c-.29-.17-.25-.46.08-.65l3.55-2a1.23,1.23,0,0,1,1.12,0l3.58,2.06c.28.17.25.46-.08.65l-3.55,2.05A1.23,1.23,0,0,1,145.75,121.3Z" style="fill:#f2e2df"/><path d="M151.28,124.49l-3.58-2.06c-.29-.17-.25-.46.08-.65l3.54-2a1.26,1.26,0,0,1,1.13,0l3.57,2.06c.29.17.26.46-.08.65l-3.54,2A1.23,1.23,0,0,1,151.28,124.49Z" style="fill:#f2e2df"/><path d="M109.68,94.26,106.1,92.2c-.29-.17-.25-.46.08-.65l3.54-2a1.26,1.26,0,0,1,1.13,0l3.57,2.06c.29.17.26.46-.08.65l-3.54,2A1.23,1.23,0,0,1,109.68,94.26Z" style="fill:#f2e2df"/><path d="M104.07,91,100.49,89c-.29-.17-.25-.46.08-.65l3.54-2a1.26,1.26,0,0,1,1.13,0l3.57,2.06c.29.17.26.46-.08.65l-3.54,2A1.27,1.27,0,0,1,104.07,91Z" style="fill:#f2e2df"/><path d="M98.45,87.78l-7.71-4.45c-.29-.17-.25-.45.08-.65l3.55-2a1.21,1.21,0,0,1,1.12,0L103.2,85c.28.17.25.46-.08.65l-3.55,2A1.21,1.21,0,0,1,98.45,87.78Z" style="fill:#f2e2df"/><path d="M102.38,83.84l-6.26-3.62c-.29-.16-.25-.45.08-.64l3.55-2a1.27,1.27,0,0,1,1.12,0l6.25,3.61c.29.17.25.46-.08.65l-3.54,2.05A1.27,1.27,0,0,1,102.38,83.84Z" style="fill:#f2e2df"/><path d="M115.2,97.45l-3.58-2.06c-.28-.17-.25-.46.08-.65l3.55-2a1.23,1.23,0,0,1,1.12,0L120,94.71c.29.17.25.46-.08.65l-3.55,2A1.23,1.23,0,0,1,115.2,97.45Z" style="fill:#f2e2df"/><path d="M120.73,100.65l-3.58-2.07c-.29-.17-.25-.46.08-.65l3.55-2.05a1.23,1.23,0,0,1,1.12,0l3.58,2.06c.29.17.25.46-.08.65l-3.55,2A1.27,1.27,0,0,1,120.73,100.65Z" style="fill:#f2e2df"/><path d="M126.26,103.84l-3.58-2.07c-.29-.17-.25-.45.08-.65l3.55-2a1.21,1.21,0,0,1,1.12,0L131,101.1c.28.16.25.45-.08.64l-3.55,2.05A1.27,1.27,0,0,1,126.26,103.84Z" style="fill:#f2e2df"/><path d="M131.78,107,128.21,105c-.29-.16-.26-.45.08-.65l3.54-2a1.24,1.24,0,0,1,1.12,0l3.58,2.07c.29.16.25.45-.08.64l-3.54,2A1.29,1.29,0,0,1,131.78,107Z" style="fill:#f2e2df"/><path d="M137.31,110.22l-3.58-2.07c-.28-.16-.25-.45.08-.64l3.55-2.05a1.27,1.27,0,0,1,1.12,0l3.58,2.07c.29.16.25.45-.08.65l-3.55,2A1.24,1.24,0,0,1,137.31,110.22Z" style="fill:#f2e2df"/><path d="M142.84,113.41l-3.58-2.07c-.29-.16-.25-.45.08-.64l3.55-2a1.27,1.27,0,0,1,1.12-.05l3.58,2.07c.28.17.25.45-.08.65l-3.55,2A1.21,1.21,0,0,1,142.84,113.41Z" style="fill:#f2e2df"/><path d="M148.37,116.6l-3.58-2.06c-.29-.17-.25-.46.08-.65l3.54-2a1.29,1.29,0,0,1,1.13,0l3.57,2.07c.29.17.26.46-.08.65l-3.54,2A1.23,1.23,0,0,1,148.37,116.6Z" style="fill:#f2e2df"/><path d="M153.89,119.79l-3.58-2.06c-.28-.17-.25-.46.08-.65l3.55-2a1.23,1.23,0,0,1,1.12,0l3.58,2.06c.29.17.25.46-.08.65l-3.55,2A1.23,1.23,0,0,1,153.89,119.79Z" style="fill:#f2e2df"/><path d="M159.42,123l-3.58-2.06c-.29-.17-.25-.46.08-.65l3.55-2a1.23,1.23,0,0,1,1.12,0l3.58,2.06c.29.17.25.46-.08.65l-3.55,2A1.23,1.23,0,0,1,159.42,123Z" style="fill:#f2e2df"/><path d="M169.25,128.66l-7.81-4.51c-.29-.17-.25-.46.08-.65l3.54-2a1.26,1.26,0,0,1,1.13,0l7.8,4.51c.29.16.26.45-.08.64l-3.54,2.05A1.27,1.27,0,0,1,169.25,128.66Z" style="fill:#f2e2df"/><path d="M180,122.44l-6.59-3.8c-.29-.17-.26-.46.08-.65l3.54-2a1.23,1.23,0,0,1,1.12,0l6.59,3.8c.29.17.26.46-.08.65l-3.54,2.05A1.23,1.23,0,0,1,180,122.44Z" style="fill:#f2e2df"/><path d="M124.88,96.83l-3.58-2.07c-.28-.16-.25-.45.08-.64l3.55-2.05a1.27,1.27,0,0,1,1.12,0l3.58,2.07c.29.17.25.46-.08.65l-3.55,2A1.21,1.21,0,0,1,124.88,96.83Z" style="fill:#f2e2df"/><path d="M119.22,93.56l-3.58-2.07c-.29-.16-.25-.45.08-.64l3.55-2a1.27,1.27,0,0,1,1.12,0L124,90.82c.28.16.25.45-.08.65l-3.55,2A1.21,1.21,0,0,1,119.22,93.56Z" style="fill:#f2e2df"/><path d="M113.55,90.29,110,88.22c-.28-.16-.25-.45.08-.64l3.55-2a1.27,1.27,0,0,1,1.12,0l3.58,2.07c.29.16.25.45-.08.65l-3.55,2A1.24,1.24,0,0,1,113.55,90.29Z" style="fill:#f2e2df"/><path d="M107.89,87,104.31,85c-.29-.16-.25-.45.08-.64l3.55-2a1.27,1.27,0,0,1,1.12-.05l3.58,2.07c.28.16.25.45-.08.65L109,87A1.24,1.24,0,0,1,107.89,87Z" style="fill:#f2e2df"/><path d="M130.41,100,126.83,98c-.29-.17-.25-.46.08-.65l3.55-2a1.27,1.27,0,0,1,1.12-.05l3.58,2.07c.28.17.25.46-.08.65l-3.55,2A1.23,1.23,0,0,1,130.41,100Z" style="fill:#f2e2df"/><path d="M135.94,103.21l-3.58-2.06c-.29-.17-.25-.46.08-.65l3.54-2a1.26,1.26,0,0,1,1.13,0l3.57,2.06c.29.17.26.46-.08.65l-3.54,2A1.23,1.23,0,0,1,135.94,103.21Z" style="fill:#f2e2df"/><path d="M141.46,106.4l-3.58-2.06c-.28-.17-.25-.46.09-.65l3.54-2a1.23,1.23,0,0,1,1.12,0l3.58,2.06c.29.17.25.46-.08.65l-3.54,2A1.26,1.26,0,0,1,141.46,106.4Z" style="fill:#f2e2df"/><path d="M147,109.59l-3.58-2.06c-.29-.17-.25-.46.08-.65l3.55-2a1.23,1.23,0,0,1,1.12,0l3.58,2.06c.29.17.25.46-.08.65l-3.55,2A1.23,1.23,0,0,1,147,109.59Z" style="fill:#f2e2df"/><path d="M152.52,112.79l-3.58-2.07c-.29-.17-.25-.46.08-.65l3.55-2a1.23,1.23,0,0,1,1.12,0l3.58,2.06c.28.17.25.46-.08.65l-3.55,2A1.27,1.27,0,0,1,152.52,112.79Z" style="fill:#f2e2df"/><path d="M158.05,116l-3.58-2.07c-.29-.17-.25-.45.08-.65l3.54-2a1.21,1.21,0,0,1,1.12,0l3.58,2.07c.29.16.25.45-.08.64l-3.54,2.05A1.27,1.27,0,0,1,158.05,116Z" style="fill:#f2e2df"/><path d="M163.57,119.17,160,117.1c-.28-.16-.25-.45.08-.65l3.55-2a1.24,1.24,0,0,1,1.12,0l3.58,2.07c.29.16.25.45-.08.64l-3.55,2.05A1.27,1.27,0,0,1,163.57,119.17Z" style="fill:#f2e2df"/><path d="M169.1,122.36l-3.58-2.07c-.29-.16-.25-.45.08-.64l3.55-2.05a1.27,1.27,0,0,1,1.12,0l3.58,2.07c.28.16.25.45-.08.65l-3.55,2A1.24,1.24,0,0,1,169.1,122.36Z" style="fill:#f2e2df"/><path d="M174.63,125.55l-3.58-2.07c-.29-.16-.25-.45.08-.64l3.54-2a1.29,1.29,0,0,1,1.13-.05l3.57,2.07c.29.17.26.45-.08.65l-3.54,2A1.21,1.21,0,0,1,174.63,125.55Z" style="fill:#f2e2df"/><path d="M122,88.94l-3.58-2.07c-.28-.16-.25-.45.08-.65l3.55-2a1.24,1.24,0,0,1,1.12-.05l3.58,2.07c.29.16.25.45-.08.64l-3.55,2A1.27,1.27,0,0,1,122,88.94Z" style="fill:#f2e2df"/><path d="M116.47,85.76l-3.58-2.06c-.28-.17-.25-.46.08-.65l3.55-2a1.27,1.27,0,0,1,1.12,0L121.22,83c.29.17.25.46-.08.65l-3.55,2A1.23,1.23,0,0,1,116.47,85.76Z" style="fill:#f2e2df"/><path d="M111,82.59l-3.58-2.07c-.28-.17-.25-.45.08-.65l3.55-2a1.21,1.21,0,0,1,1.12,0l3.58,2.07c.29.16.25.45-.08.64l-3.55,2.05A1.27,1.27,0,0,1,111,82.59Z" style="fill:#f2e2df"/><path d="M105.47,79.41l-3.58-2.06c-.28-.17-.25-.46.08-.65l3.55-2a1.27,1.27,0,0,1,1.12-.05l3.58,2.07c.29.17.25.46-.08.65l-3.55,2.05A1.23,1.23,0,0,1,105.47,79.41Z" style="fill:#f2e2df"/><path d="M111.13,76.15l-3.58-2.07c-.29-.17-.25-.46.08-.65l1.17-.67a1.21,1.21,0,0,1,1.12-.05l3.58,2.07c.29.16.25.45-.08.64l-1.17.68A1.27,1.27,0,0,1,111.13,76.15Z" style="fill:#f2e2df"/><path d="M118.31,80.29l-3.58-2.07c-.29-.16-.25-.45.08-.64L116,76.9a1.27,1.27,0,0,1,1.12-.05l3.58,2.07c.29.17.25.46-.08.65l-1.17.67A1.21,1.21,0,0,1,118.31,80.29Z" style="fill:#f2e2df"/><path d="M123.78,83.45l-3.58-2.06c-.28-.17-.25-.46.08-.65l1.18-.68a1.23,1.23,0,0,1,1.12,0l3.58,2.06c.28.17.25.46-.08.65l-1.18.68A1.23,1.23,0,0,1,123.78,83.45Z" style="fill:#f2e2df"/><path d="M129.26,86.61l-3.58-2.06c-.29-.17-.25-.46.08-.65l1.17-.68a1.23,1.23,0,0,1,1.12,0l3.58,2.06c.29.17.25.46-.08.65l-1.17.68A1.23,1.23,0,0,1,129.26,86.61Z" style="fill:#f2e2df"/><path d="M134.74,89.78l-3.58-2.07c-.29-.17-.25-.46.08-.65l1.17-.67a1.21,1.21,0,0,1,1.12,0l3.58,2.07c.29.16.25.45-.08.64l-1.17.68A1.27,1.27,0,0,1,134.74,89.78Z" style="fill:#f2e2df"/><path d="M165.31,107.43l-3.58-2.07c-.28-.16-.25-.45.08-.64L163,104a1.27,1.27,0,0,1,1.12-.05l3.58,2.07c.28.16.25.45-.09.65l-1.17.67A1.24,1.24,0,0,1,165.31,107.43Z" style="fill:#f2e2df"/><path d="M170.79,110.59l-3.58-2.06c-.29-.17-.25-.46.08-.65l1.17-.68a1.27,1.27,0,0,1,1.12,0l3.58,2.07c.29.17.25.46-.08.65l-1.17.67A1.21,1.21,0,0,1,170.79,110.59Z" style="fill:#f2e2df"/><path d="M176.26,113.75l-3.57-2.06c-.29-.17-.26-.46.08-.65l1.17-.68a1.23,1.23,0,0,1,1.12,0l3.58,2.06c.29.17.25.46-.08.65l-1.17.68A1.26,1.26,0,0,1,176.26,113.75Z" style="fill:#f2e2df"/><path d="M181.74,116.92l-3.58-2.07c-.28-.17-.25-.46.08-.65l1.18-.68a1.23,1.23,0,0,1,1.12,0l3.58,2.06c.28.17.25.46-.08.65l-1.18.68A1.27,1.27,0,0,1,181.74,116.92Z" style="fill:#f2e2df"/><path d="M127.5,92.13l-3.58-2.07c-.29-.16-.25-.45.08-.64l3.55-2a1.27,1.27,0,0,1,1.12-.05l3.58,2.07c.28.16.25.45-.08.64l-3.55,2A1.27,1.27,0,0,1,127.5,92.13Z" style="fill:#f2e2df"/><path d="M133,95.32l-3.58-2.07c-.29-.16-.25-.45.08-.64l3.54-2a1.29,1.29,0,0,1,1.13,0l3.57,2.07c.29.16.26.45-.08.65l-3.54,2A1.24,1.24,0,0,1,133,95.32Z" style="fill:#f2e2df"/><path d="M138.55,98.51,135,96.44c-.28-.16-.25-.45.09-.64l3.54-2a1.27,1.27,0,0,1,1.12,0l3.58,2.07c.29.17.25.46-.08.65l-3.55,2A1.21,1.21,0,0,1,138.55,98.51Z" style="fill:#f2e2df"/><path d="M144.08,101.7l-3.58-2.06c-.29-.17-.25-.46.08-.65l3.55-2a1.27,1.27,0,0,1,1.12,0L148.83,99c.29.17.25.46-.08.65l-3.55,2A1.23,1.23,0,0,1,144.08,101.7Z" style="fill:#f2e2df"/><path d="M149.61,104.89,146,102.83c-.29-.17-.25-.46.08-.65l3.55-2.05a1.23,1.23,0,0,1,1.12,0l3.58,2.06c.28.17.25.46-.08.65l-3.55,2A1.23,1.23,0,0,1,149.61,104.89Z" style="fill:#f2e2df"/><path d="M155.13,108.08,151.56,106c-.29-.17-.26-.46.08-.65l3.54-2.05a1.23,1.23,0,0,1,1.12,0l3.58,2.06c.29.17.25.46-.08.65L156.26,108A1.26,1.26,0,0,1,155.13,108.08Z" style="fill:#f2e2df"/><path d="M160.66,111.28l-3.58-2.07c-.28-.17-.25-.46.08-.65l3.55-2a1.23,1.23,0,0,1,1.12,0l3.58,2.06c.29.17.25.46-.08.65l-3.55,2A1.27,1.27,0,0,1,160.66,111.28Z" style="fill:#f2e2df"/><path d="M166.19,114.47l-3.58-2.07c-.29-.17-.25-.46.08-.65l3.55-2a1.21,1.21,0,0,1,1.12,0l3.58,2.07c.28.16.25.45-.08.64l-3.55,2A1.27,1.27,0,0,1,166.19,114.47Z" style="fill:#f2e2df"/><path d="M171.72,117.66l-3.58-2.07c-.29-.16-.25-.45.08-.65l3.54-2a1.23,1.23,0,0,1,1.13-.05l3.57,2.07c.29.16.26.45-.08.64l-3.54,2A1.27,1.27,0,0,1,171.72,117.66Z" style="fill:#f2e2df"/><path d="M95.9,92.52,85.36,86.44c-.29-.17-.25-.46.08-.65L89,83.74a1.23,1.23,0,0,1,1.12,0l10.54,6.08c.29.17.25.46-.08.65l-3.55,2A1.23,1.23,0,0,1,95.9,92.52Z" style="fill:#f2e2df"/><path d="M163.8,131.73l-10.54-6.09c-.29-.17-.25-.46.08-.65l3.55-2a1.21,1.21,0,0,1,1.12,0L168.55,129c.29.17.25.46-.08.65l-3.55,2.05A1.27,1.27,0,0,1,163.8,131.73Z" style="fill:#f2e2df"/><path d="M141.7,126,138.12,124c-.29-.17-.25-.46.08-.65l4.22-2.44a1.29,1.29,0,0,1,1.13,0l3.57,2.07c.29.17.26.46-.08.65L142.82,126A1.23,1.23,0,0,1,141.7,126Z" style="fill:#f2e2df"/><path d="M101.56,102.84l-5.72-3.31c-.29-.16-.26-.45.08-.64l4.22-2.44a1.27,1.27,0,0,1,1.12,0L107,99.71c.28.16.25.45-.08.64l-4.23,2.44A1.24,1.24,0,0,1,101.56,102.84Z" style="fill:#f2e2df"/><path d="M136.37,122.94l-5.72-3.31c-.29-.16-.25-.45.08-.64l4.22-2.44a1.27,1.27,0,0,1,1.12,0l5.73,3.31c.29.16.25.45-.08.64l-4.23,2.44A1.27,1.27,0,0,1,136.37,122.94Z" style="fill:#f2e2df"/><path d="M109.53,107.44l-5.72-3.3c-.29-.17-.25-.46.08-.65l4.23-2.44a1.23,1.23,0,0,1,1.12,0l5.72,3.3c.29.17.25.46-.08.65l-4.22,2.44A1.26,1.26,0,0,1,109.53,107.44Z" style="fill:#f2e2df"/><path d="M109.28,101l24.88,14.37c.31.17.31.46,0,.64l-4.31,2.49a1.21,1.21,0,0,1-1.11,0l-24.89-14.37Z" style="fill:#f2e2df"/><path d="M157.15,131.8l4,2.3c.24.14.21.37-.06.53l-1.73,1a1,1,0,0,1-.92,0l-4-2.3c-.23-.14-.2-.38.07-.54l1.73-1A1,1,0,0,1,157.15,131.8Z" style="fill:#f2e2df"/><path d="M151.57,128.58l4,2.3c.23.14.21.38-.07.53l-1.72,1a1,1,0,0,1-.92,0l-4-2.3c-.24-.14-.21-.38.07-.53l1.72-1A1,1,0,0,1,151.57,128.58Z" style="fill:#f2e2df"/><path d="M146.05,125.39l4,2.3c.24.14.21.38-.06.53l-1.73,1a1,1,0,0,1-.92,0l-4-2.3c-.23-.14-.2-.38.07-.53l1.73-1A1,1,0,0,1,146.05,125.39Z" style="fill:#f2e2df"/><path d="M154.62,126.82l4,2.3c.24.14.21.37-.06.53l-1.73,1a1,1,0,0,1-.92,0l-4-2.3c-.23-.14-.2-.38.07-.53l1.73-1A1,1,0,0,1,154.62,126.82Z" style="fill:#f2e2df"/><polygon points="176.46 64.55 146.69 47.36 147.07 45.43 176.84 62.62 176.46 64.55" style="fill:#d9eafd"/><polygon points="165.79 67.82 145.01 55.82 145.4 53.88 166.18 65.88 165.79 67.82" style="fill:#d9eafd"/><polygon points="163.83 61.97 145.85 51.59 146.23 49.66 164.21 60.04 163.83 61.97" style="fill:#fff"/><polygon points="175.62 68.78 166.63 63.59 167.01 61.66 176 66.84 175.62 68.78" style="fill:#db3097"/><polygon points="143.51 30.48 134.53 25.29 134.91 23.35 143.9 28.54 143.51 30.48" style="fill:#d9eafd"/><polygon points="142.54 34.98 133.55 29.79 133.93 27.85 142.92 33.04 142.54 34.98" style="fill:#fff"/><polygon points="186.66 97.36 177.67 92.17 178.06 90.24 187.04 95.43 186.66 97.36" style="fill:#d9eafd"/><polygon points="140.59 43.97 131.6 38.78 131.98 36.85 140.97 42.04 140.59 43.97" style="fill:#d9eafd"/><path d="M160,45.36a1.11,1.11,0,0,1-1.61.5,1.39,1.39,0,0,1-.58-1.76,1.11,1.11,0,0,1,1.61-.5A1.39,1.39,0,0,1,160,45.36Z" style="fill:#db3097"/><path d="M163.88,47.6a1.11,1.11,0,0,1-1.61.5,1.4,1.4,0,0,1-.58-1.77,1.13,1.13,0,0,1,1.62-.49A1.4,1.4,0,0,1,163.88,47.6Z" style="fill:#fff"/><path d="M167.76,49.84a1.13,1.13,0,0,1-1.62.49,1.39,1.39,0,0,1-.58-1.76,1.12,1.12,0,0,1,1.62-.5A1.43,1.43,0,0,1,167.76,49.84Z" style="fill:#d9eafd"/><path d="M171.63,52.07a1.12,1.12,0,0,1-1.62.5,1.43,1.43,0,0,1-.58-1.77,1.13,1.13,0,0,1,1.62-.49A1.41,1.41,0,0,1,171.63,52.07Z" style="fill:#db3097"/><path d="M107.27,132.64,82.59,118.39c-.72-.42-.63-1.14.2-1.62l14.89-8.6a3.14,3.14,0,0,1,2.81-.12l24.68,14.25c.71.42.62,1.14-.21,1.62l-14.89,8.6A3.12,3.12,0,0,1,107.27,132.64Z" style="fill:#fff"/><g style="clip-path:url(#a)"><path d="M160.83,68.46c1.7,1,1.7,2.58,0,3.56l-28.9,16.69a1.86,1.86,0,0,1-1.69,0,.52.52,0,0,1,0-1l28.9-16.68a.85.85,0,0,0,0-1.61l-2.8-1.61c.31-.47.59-1,.86-1.46Z" style="fill:#751914"/><path d="M119.9,81.76l28.9-16.68a6.82,6.82,0,0,1,6.16,0l2.24,1.29c-.27.5-.55,1-.86,1.46l-3.07-1.77a3,3,0,0,0-2.78,0l-28.9,16.68a1.86,1.86,0,0,1-1.69,0A.52.52,0,0,1,119.9,81.76Z" style="fill:#751914"/><polygon points="119.55 82.29 119.99 41.93 149.83 24.77 154.07 24.49 158.16 27.14 160.68 29.33 131.17 76.12 121.54 81.8 119.55 82.29" style="fill:#751914"/><polygon points="130.75 87.42 121.7 82.19 121.7 42.92 131.03 47.26 130.75 87.42" style="fill:#99414c"/><path d="M127,77.15a2.5,2.5,0,0,1,1.42,2.06c0,.64,0,1,0,1.59l-5.14-3c0-.59,0-.89,0-1.48,0-.76.52-.83,1.33-.37A3.29,3.29,0,0,1,125.71,77C125.89,76.74,126.33,76.78,127,77.15Zm-2.83.43,1.22.72v-.7a1.08,1.08,0,0,0-.62-.89c-.41-.24-.6-.17-.6.17Zm2.71.21c-.44-.25-.64-.17-.63.2s0,.49,0,.82l1.27.75v-.83A1.08,1.08,0,0,0,126.86,77.79Z"/><path d="M126.4,76.51c-1.2-.69-2.06-1.73-2.07-2.47s.84-.8,2-.11,2.06,1.71,2.07,2.46S127.59,77.2,126.4,76.51Zm0-1.89c-.68-.4-1.1-.38-1.09,0s.42.84,1.11,1.24,1.1.37,1.09,0S127.06,75,126.37,74.62Z"/><path d="M126.36,73.65c-1.2-.68-2.06-1.7-2.07-2.45s.84-.8,2-.13,2.06,1.68,2.07,2.44S127.56,74.33,126.36,73.65Zm0-1.89c-.69-.39-1.1-.36-1.1,0s.42.83,1.11,1.22,1.1.36,1.1,0S127,72.14,126.34,71.76Z"/><path d="M126.74,69.84l.56.63,1,.56v.69l-5.51-3c0-.27,0-.4,0-.67l3.12,1.72c-.65-.75-1-1.13-1.62-1.87V67l1.71,1.9,2.3.18V70Z"/><path d="M124,64.63c0,.39,0,.59,0,1l-1-.52,0-2.63,1,.51c0,.39,0,.58,0,1l4.24,2.24v.72Z"/><path d="M126.54,61.93c0,.71,0,1.06,0,1.78.5.19.81.1.8-.26a1.24,1.24,0,0,0-.39-.79l.67,0A2,2,0,0,1,128.3,64c0,.82-.86.9-2.06.27s-2.08-1.62-2.09-2.33.77-.8,2.07-.14Zm-.66,1.43c0-.46,0-.69,0-1.16-.5-.21-.83-.16-.83.15S125.36,63,125.88,63.36Z"/><path d="M127.85,62.36l-.84-.65a.66.66,0,0,0,.38-.62.65.65,0,0,0-.38-.62c-.66-.34,0,1.43-1.58.6a2.19,2.19,0,0,1-1.32-1.75.74.74,0,0,1,.34-.72l.84.65a.51.51,0,0,0-.29.52.69.69,0,0,0,.38.63c.69.35,0-1.4,1.6-.6a2.16,2.16,0,0,1,1.3,1.76A.81.81,0,0,1,127.85,62.36Z"/><path d="M128,58.37a1.21,1.21,0,0,1,.26.69c0,.56-.48.64-1.45.15l-1.66-.83v.36l-.9-.45v-.36l-1-.49v-.68l1,.49v-.58l.9.45v.58l1.65.82c.35.18.53.16.53,0a.58.58,0,0,0-.15-.35Z"/><path d="M126.52,53.94A2.73,2.73,0,0,1,128.25,56a.88.88,0,0,1-.56.9l-.94-.73a.63.63,0,0,0,.47-.65,1.09,1.09,0,0,0-.69-.9c-.4-.19-.65-.14-.64.26v.32l-.81-.39-1.24-1.22c0,.52,0,.77,0,1.29l-1-.48c0-.84,0-1.27,0-2.11l.79.38L125,54C125.15,53.56,125.74,53.57,126.52,53.94Z"/><polygon points="162.1 29.64 162.1 70.21 130.31 88.4 129.89 88.23 129.89 47.6 162.1 29.64" style="fill:#99414c"/><path d="M144.1,29.46l6.32-3.63a3.05,3.05,0,0,1,2.61.08l5.87,3.38a.9.9,0,0,1,.55,1l-16,9.54-12.82,7.87-9.08-5.27Z" style="fill:#f2e2df"/><path d="M131,47V88.91a1.68,1.68,0,0,1-.79-.2.59.59,0,0,1-.35-.48h0V47.6Z" style="fill:#751914"/><polygon points="129.89 48.13 129.89 47.61 130.04 47.83 129.89 48.13" style="fill:#fff"/><path d="M150.25,23.73l-29,16.58c-1.7,1-1.71,2.57,0,3.56l5.85,3.41a6.81,6.81,0,0,0,6.17,0l29-16.58a.52.52,0,0,0,0-1,1.86,1.86,0,0,0-1.69,0l-29,16.58a3.09,3.09,0,0,1-2.78,0L123,42.9a.85.85,0,0,1,0-1.61l29-16.58c.47-.26.47-.7,0-1A1.86,1.86,0,0,0,150.25,23.73Z" style="fill:#751914"/><polygon points="139.46 67.31 154.48 58.65 154.48 43.59 139.46 52.26 139.46 67.31" style="fill:#fff"/><path d="M131.66,47.77l28.89-16.68a2.3,2.3,0,0,0,1.25-1.51,2,2,0,0,1-1.25,2L131.66,48.31a2,2,0,0,1-1.77,0" style="fill:#f2e2df"/><path d="M129.88,48c0,.28,0,.29,0,.29l1-.32" style="fill:#fff"/><path d="M174.11,76.33c1.7,1,1.7,2.58,0,3.56L145.22,96.58a2,2,0,0,1-1.7,0,.52.52,0,0,1,0-1l28.9-16.69a.84.84,0,0,0,0-1.6l-2.8-1.62c.31-.47.59-1,.87-1.45Z" style="fill:#895a49"/><path d="M134,88.81l28.06-15.87a6.84,6.84,0,0,1,6.17,0l2.24,1.3c-.28.5-.56,1-.87,1.45l-3.06-1.77a3.09,3.09,0,0,0-2.78,0L135.11,89.76c-.47.26-.75.14-1.21-.13S133.55,89.08,134,88.81Z" style="fill:#895a49"/><polygon points="133.61 89.2 133.75 49.57 163.12 32.63 167.35 32.35 171.45 35.01 173.96 37.2 144.46 83.99 134.78 89.89 133.61 89.2" style="fill:#895a49"/><polygon points="144.11 95.26 134.78 89.89 135.06 50.76 144.39 55.1 144.11 95.26" style="fill:#b3836f"/><path d="M140.15,84.73a2.49,2.49,0,0,1,1.42,2.08c0,.63,0,1,0,1.58l-5.25-3.24V83.7c0-.74.56-.8,1.38-.3a3.37,3.37,0,0,1,1.15,1.09C139,84.27,139.49,84.33,140.15,84.73Zm-2.92.3,1.24.76V85.1a1.08,1.08,0,0,0-.61-.91c-.42-.25-.62-.18-.62.15Zm2.79.32c-.45-.26-.66-.2-.66.17v.81l1.3.8v-.82A1.11,1.11,0,0,0,140,85.35Z"/><path d="M139.57,84.06c-1.22-.73-2.08-1.78-2.07-2.51s.87-.76,2.08,0,2.08,1.77,2.07,2.51S140.78,84.79,139.57,84.06Zm0-1.87c-.7-.41-1.12-.41-1.12-.07s.41.84,1.11,1.26,1.12.41,1.12.07S140.27,82.61,139.58,82.19Z"/><path d="M139.58,81.23c-1.21-.71-2.07-1.75-2.06-2.48s.87-.77,2.08-.07,2.07,1.74,2.07,2.49S140.8,82,139.58,81.23Zm0-1.87c-.7-.4-1.12-.39-1.12-.06s.41.84,1.11,1.25,1.12.4,1.12.06S140.29,79.77,139.6,79.36Z"/><path d="M140,77.48l.56.64,1,.59v.68l-5.56-3.2v-.66l3.15,1.8-1.61-1.9v-.79l1.71,1.92,2.33.26v.82Z"/><path d="M137.39,72.25v1l-1-.55V70.06l1,.54v1l4.26,2.34v.7Z"/><path d="M140,69.64c0,.71,0,1.06,0,1.76.5.21.81.13.81-.23a1.2,1.2,0,0,0-.38-.79h.67a2,2,0,0,1,.65,1.32c0,.81-.89.86-2.08.2s-2.08-1.66-2.07-2.36.8-.77,2.1-.08ZM139.3,71V69.9c-.51-.23-.84-.19-.84.12S138.78,70.71,139.3,71Z"/><path d="M141.3,70.1l-.83-.67a.62.62,0,0,0,.39-.6.66.66,0,0,0-.36-.63c-.66-.34,0,1.42-1.61.56a2.22,2.22,0,0,1-1.3-1.76.76.76,0,0,1,.36-.7l.83.66a.53.53,0,0,0-.3.51.69.69,0,0,0,.37.63c.69.36,0-1.39,1.62-.56a2.17,2.17,0,0,1,1.28,1.78A.79.79,0,0,1,141.3,70.1Z"/><path d="M141.51,66.15a1.2,1.2,0,0,1,.25.69c0,.55-.49.62-1.45.12l-1.66-.87v.36l-.9-.47v-.35l-1-.52v-.66l1,.51v-.58l.9.47v.57l1.64.85c.34.18.53.17.53,0a.58.58,0,0,0-.15-.35Z"/><path d="M140.74,62l1,.49c0,.92,0,1.38,0,2.3l-.79-.4L139,62.27a3.22,3.22,0,0,0-1-.8c-.41-.2-.66-.16-.66.15a1.34,1.34,0,0,0,.52.89l-.57.21a2.5,2.5,0,0,1-1-1.67c0-.67.61-.81,1.56-.34A5.24,5.24,0,0,1,139.6,62l1.13,1.27Z"/><polygon points="175.39 37.51 175.39 78.08 143.6 96.26 143.17 96.09 143.17 55.47 175.39 37.51" style="fill:#b3836f"/><path d="M157.34,37.4l6.32-3.63a3.13,3.13,0,0,1,2.61.08l5.86,3.39a.9.9,0,0,1,.56,1l-16,9.54L143.9,55.61l-9.08-5.27Z" style="fill:#fff"/><path d="M144.73,55.61l-.41,39.53v1.63a1.72,1.72,0,0,1-.8-.19.63.63,0,0,1-.35-.48h0V55.47Z" style="fill:#895a49"/><path d="M164,31.36,135,48c-1.7,1-1.71,2.57,0,3.56l5.86,3.4a6.79,6.79,0,0,0,6.16,0L176,38.34a.52.52,0,0,0,0-1,1.86,1.86,0,0,0-1.69,0L145.34,54a3.06,3.06,0,0,1-2.78,0l-5.85-3.4a.85.85,0,0,1,0-1.61l28.95-16.6a.52.52,0,0,0,0-1A1.86,1.86,0,0,0,164,31.36Z" style="fill:#895a49"/><polygon points="152.75 75.18 167.76 66.51 167.76 51.46 152.75 60.13 152.75 75.18" style="fill:#fff"/><path d="M143.45,55.68a1.32,1.32,0,0,0,1.4-.11L174,39a2.15,2.15,0,0,0,1-1.66,1.83,1.83,0,0,1-1,2.09L144.85,56.1a1.89,1.89,0,0,1-1.7,0,.67.67,0,0,1-.35-.76A4.89,4.89,0,0,0,143.45,55.68Z" style="fill:#fff"/><path d="M143.38,55.64c0,.2.73.26.73.26l.3-.12.36-.17Z" style="fill:#fff"/><path d="M187.73,84.45c1.68,1,1.68,2.55,0,3.53l-28.68,16.55a1.84,1.84,0,0,1-1.68,0,.51.51,0,0,1,0-1L186.05,87a.84.84,0,0,0,0-1.59l-2.78-1.61c.31-.46.59-1,.86-1.44Z" style="fill:#5a1b16"/><path d="M147.12,97.64l28.67-16.55a6.74,6.74,0,0,1,6.12,0l2.22,1.28c-.27.49-.55,1-.86,1.44l-3-1.75a3.05,3.05,0,0,0-2.76,0L148.8,98.61a1.84,1.84,0,0,1-1.68,0C146.65,98.34,146.65,97.91,147.12,97.64Z" style="fill:#5a1b16"/><polygon points="146.77 98.16 147.36 58.29 176.82 41.09 179.75 42.77 183.96 45.17 186.6 46.81 158.3 92.04 148.74 97.67 146.77 98.16" style="fill:#751914"/><polygon points="157.08 103.88 148.03 98.65 148.32 59.76 157.36 63.72 157.08 103.88" style="fill:#99414c"/><path d="M153.26,91.92A2.44,2.44,0,0,1,154.67,94V95.6l-5.24-3c0-.61,0-.91,0-1.51,0-.78.56-.86,1.37-.39A3.16,3.16,0,0,1,152,91.74C152.16,91.5,152.61,91.54,153.26,91.92Zm-2.91.45,1.23.72c0-.29,0-.43,0-.72a1,1,0,0,0-.61-.9c-.41-.24-.61-.16-.62.19S150.36,92.08,150.35,92.37Zm2.78.2c-.44-.26-.65-.18-.65.19s0,.51,0,.84l1.29.75v-.84A1,1,0,0,0,153.13,92.57Z"/><path d="M152.69,91.27c-1.21-.71-2.05-1.76-2-2.52s.87-.81,2.06-.1,2,1.74,2,2.5S153.89,92,152.69,91.27Zm0-1.92c-.68-.41-1.1-.39-1.1,0s.4.85,1.09,1.26,1.11.37,1.11,0S153.39,89.75,152.7,89.35Z"/><path d="M152.71,88.37c-1.19-.71-2-1.76-2-2.51s.86-.82,2-.12a3.66,3.66,0,0,1,2,2.51C154.75,89,153.9,89.07,152.71,88.37Zm0-1.93c-.68-.4-1.09-.38-1.1,0s.41.85,1.09,1.25,1.09.38,1.1,0S153.41,86.84,152.73,86.44Z"/><path d="M153.17,84.51l.54.65,1,.59v.69l-5.4-3.19v-.69l3.05,1.81-1.55-1.94c0-.33,0-.5,0-.83l1.64,2,2.25.25v.84Z"/><path d="M150.64,79.14c0,.39,0,.59,0,1l-1-.57.05-2.7.94.57v1l4.07,2.42v.72Z"/><path d="M153.13,76.47c0,.73,0,1.09,0,1.81.48.22.77.14.77-.23a1.37,1.37,0,0,0-.37-.82l.65,0a2.13,2.13,0,0,1,.61,1.36c0,.82-.84.86-2,.18a3.63,3.63,0,0,1-2-2.45c0-.7.77-.79,2-.06Zm-.66,1.43c0-.47,0-.7,0-1.17-.48-.24-.8-.21-.8.1A1.54,1.54,0,0,0,152.47,77.9Z"/><path d="M154.37,77c-.31-.29-.47-.43-.79-.71a.62.62,0,0,0,.37-.61.7.7,0,0,0-.34-.65c-.62-.37,0,1.45-1.52.54a2.28,2.28,0,0,1-1.21-1.84.78.78,0,0,1,.34-.72l.78.7a.54.54,0,0,0-.29.52.72.72,0,0,0,.35.65c.65.4,0-1.42,1.53-.53a2.29,2.29,0,0,1,1.19,1.86A.8.8,0,0,1,154.37,77Z"/><path d="M154.55,73a1.31,1.31,0,0,1,.24.71c0,.56-.46.62-1.36.07l-1.55-.93v.37l-.85-.51v-.37l-.92-.55c0-.28,0-.42,0-.7l.92.56V71l.84.51v.6l1.53.92c.33.2.5.19.5,0a.69.69,0,0,0-.14-.36Z"/><path d="M149.89,67.42l4.85,2.94v.72l-4-2.4v.62l-.9-.55C149.88,68.22,149.88,68,149.89,67.42Z"/><polygon points="188.99 45.93 188.99 86.18 157.45 104.22 157.03 104.06 157.03 63.74 188.99 45.93" style="fill:#99414c"/><path d="M170.56,46.57l6.27-3.6a3.08,3.08,0,0,1,2.59.08l5.82,3.36c.45.26.55.47.46.81l-15.84,9-12.22,6.87-8.1-4.64Z" style="fill:#f2e2df"/><path d="M158,64.47l.2,38.64v1.62a1.68,1.68,0,0,1-.79-.2.59.59,0,0,1-.34-.47h0l0-39.67Z" style="fill:#5a1b16"/><polygon points="157.03 64.27 157.03 63.75 157.18 63.97 157.03 64.27" style="fill:#fff"/><path d="M177.88,40.14l-28.82,16.3c-1.69,1-2.41,2.33-.74,3.32l8.05,4.59c1.68,1,2.87.05,4.57-.91l28.82-16.3a.51.51,0,0,0,0-1,2.34,2.34,0,0,0-1.9-.14L159.23,62.18a3,3,0,0,1-2.72.25L150.72,59a.84.84,0,0,1,0-1.59l28.82-16.3c.47-.27.47-.7,0-1A1.87,1.87,0,0,0,177.88,40.14Z" style="fill:#751914"/><polygon points="166.53 83.3 181.43 74.7 181.43 59.77 166.53 68.37 166.53 83.3" style="fill:#fff"/><path d="M186.28,49.2l-27.5,15.88a1.86,1.86,0,0,1-1.69,0c-.36-.21-.44-.51-.26-.76a.72.72,0,0,0,.26.22,1.86,1.86,0,0,0,1.69,0l27.49-15.87" style="fill:#fff"/></g><path d="M200.1,150a4.55,4.55,0,0,0-4.13,0l-53.38,30.83a1.26,1.26,0,0,0,0,2.39,4.58,4.58,0,0,0,4.14,0l53.37-30.83A1.26,1.26,0,0,0,200.1,150Z" style="fill:#97867f;opacity:0.5"/><path d="M209.23,133.28h0a.25.25,0,0,0-.26-.11l-3.22.7L207,136l2.18-2.48A.23.23,0,0,0,209.23,133.28Z" style="fill:#b3836f"/><path d="M208,134.88a1.59,1.59,0,0,0-.74-1.26.51.51,0,0,0-.48-.06,20.65,20.65,0,0,0-10.62,2.84l-.23.14,4,6.82,1.18-.79a20.58,20.58,0,0,0,6.19-6.41l.51-.83A.56.56,0,0,0,208,134.88Z" style="fill:#895a49"/><path d="M200.69,141.54a6.17,6.17,0,0,0-2.83-4.82c-1.56-.88-2.8-.15-2.79,1.63a6.19,6.19,0,0,0,2.84,4.83C199.46,144.06,200.71,143.33,200.69,141.54Z" style="fill:#b3836f"/><polygon points="176.09 158.19 199.89 143.36 195.88 136.54 171.35 150.13 176.09 158.19" style="fill:#b3836f"/><path d="M177,156a7.32,7.32,0,0,0-3.35-5.7c-1.84-1-3.31-.17-3.3,1.93a7.31,7.31,0,0,0,3.36,5.7C175.58,159,177.05,158.15,177,156Z" style="fill:#d9eafd"/><path d="M175.68,156.84a7.32,7.32,0,0,0-3.35-5.7c-1.84-1-3.31-.18-3.29,1.93a7.27,7.27,0,0,0,3.35,5.7C174.22,159.81,175.7,159,175.68,156.84Z" style="fill:#b3836f"/><rect x="138.35" y="159.53" width="36.53" height="9.35" transform="translate(-61.61 102.01) rotate(-30.45)" style="fill:#b3836f"/><path d="M144.19,175.35a7.32,7.32,0,0,0-3.35-5.7c-1.84-1-3.31-.18-3.29,1.93a7.27,7.27,0,0,0,3.35,5.7C142.73,178.32,144.21,177.46,144.19,175.35Z" style="fill:#b3836f"/><path d="M143,174.67a4.85,4.85,0,0,0-2.26-3.46c-1.18-.67-2.08-.2-2,1a4.82,4.82,0,0,0,2.26,3.46C142.18,176.39,143.07,175.92,143,174.67Z" style="fill:#b3836f"/><path d="M177.28,155.9a7.32,7.32,0,0,0-3.35-5.7,2.58,2.58,0,0,0-2-.37,2.11,2.11,0,0,1,2.68-.06,7.27,7.27,0,0,1,3.35,5.7c0,1.26-.51,2.07-1.32,2.3A2.64,2.64,0,0,0,177.28,155.9Z" style="fill:#99414c"/><path d="M177.28,155.9a7.32,7.32,0,0,0-3.35-5.7,2.3,2.3,0,0,0-2.34-.21l-1.79,1,.85,1.45a7.48,7.48,0,0,0,3,5.17l.85,1.45,1.78-1h0A2.34,2.34,0,0,0,177.28,155.9Z" style="fill:#99414c"/><path d="M175.49,157a7.27,7.27,0,0,0-3.35-5.7c-1.83-1-3.31-.18-3.29,1.93a7.32,7.32,0,0,0,3.35,5.7C174,159.92,175.51,159.06,175.49,157Z" style="fill:#b3836f"/><path d="M141.52,175.61l-2.05-3.48-6.67,3.92a2,2,0,0,0-.72,2.77h0a2,2,0,0,0,2.76.71Z" style="fill:#99414c"/><path d="M141.93,174.68a3.17,3.17,0,0,0-1.45-2.46c-.79-.45-1.42-.07-1.42.84a3.17,3.17,0,0,0,1.45,2.46C141.3,176,141.94,175.59,141.93,174.68Z" style="fill:#99414c"/><path d="M149.35,162.4l-1-.56a2.1,2.1,0,0,0-2.14.23l-3.43,2a2.62,2.62,0,0,0-1.17,2l0,1.72a1.39,1.39,0,0,1-.35.86l.13.8-.86-.49h0a.44.44,0,0,1-.21-.42v-1.72a5.46,5.46,0,0,1,2.42-4.28l3.43-2a3,3,0,0,1,3.05-.33l1,.57a2.13,2.13,0,0,0,2.14-.23l13.83-8.13a.44.44,0,0,1,.45,0h0l.86.49-.73.28a1.46,1.46,0,0,1-.57.75l-13.83,8.13A3,3,0,0,1,149.35,162.4Z" style="fill:#895a49"/><path d="M149.21,162.33a2.15,2.15,0,0,0-2.14.23l-3.43,2a2.59,2.59,0,0,0-1.16,2v1.72a1.41,1.41,0,0,1-.63,1.11c-.35.21-.64,0-.64-.36l0-1.72a5.44,5.44,0,0,1,2.43-4.28l3.43-2a3,3,0,0,1,3.05-.32l1,.57a2.15,2.15,0,0,0,2.14-.23L167.07,153c.35-.21.64,0,.65.36a1.42,1.42,0,0,1-.64,1.12l-13.82,8.12a3,3,0,0,1-3,.33Z" style="fill:#895a49"/><path d="M142.44,166.91v1.75a.84.84,0,0,0,.05-.31v-1.72s0-.1,0-.15A1.63,1.63,0,0,0,142.44,166.91Z" style="fill:#895a49"/><ellipse cx="130.45" cy="133.21" rx="10.85" ry="6.27" style="fill:#97867f;opacity:0.5"/><path d="M142.8,127.85v-3.46h-.65a7.83,7.83,0,0,0-3-2.77c-4.83-2.79-12.64-2.79-17.47,0a7.83,7.83,0,0,0-3,2.77h-.65v3.44h0c0,1.84,1.19,3.67,3.61,5.07,4.83,2.78,12.64,2.78,17.47,0C141.6,131.5,142.8,129.68,142.8,127.85Z" style="fill:#99414c"/><ellipse cx="130.45" cy="124.39" rx="12.35" ry="7.13" style="fill:#99414c"/><path d="M139.19,129.43c-4.83,2.78-12.64,2.78-17.47,0-2.31-1.34-3.5-3.07-3.6-4.82-.1,1.9,1.09,3.82,3.6,5.27,4.83,2.79,12.64,2.79,17.47,0,2.51-1.45,3.7-3.37,3.6-5.27C142.69,126.36,141.5,128.09,139.19,129.43Z" style="fill:#fff"/><path d="M124.5,126.75a.55.55,0,0,1-.32-.46v-4.64c0-.36.5-.64,1.11-.64s1.11.28,1.11.64v3.85l11.18-1.37c.6-.07,1.19.15,1.32.5s-.26.68-.86.76l-12.52,1.53a1.78,1.78,0,0,1-.93-.13Z" style="fill:#fff"/><polygon points="66.63 88.39 57.45 83.09 66.63 77.79 75.81 83.09 66.63 88.39" style="fill:#2a3f77;opacity:0.5"/><polygon points="75.81 76.36 66.63 81.66 66.63 71.07 75.81 65.77 75.81 76.36" style="fill:#895a49"/><polygon points="66.63 71.07 57.45 65.77 66.63 60.47 75.81 65.77 66.63 71.07" style="fill:#b3836f"/><polygon points="66.63 81.66 57.45 76.36 57.45 65.77 66.63 71.07 66.63 81.66" style="fill:#935e4c"/><polygon points="63.33 75.94 60.76 74.45 60.76 71.49 63.33 72.97 63.33 75.94" style="fill:#fff"/><polygon points="9.55 183.37 0 177.85 9.55 172.34 19.1 177.85 9.55 183.37" style="fill:#97867f;opacity:0.5"/><polygon points="19.1 170.85 9.55 176.36 9.55 165.33 19.1 159.82 19.1 170.85" style="fill:#751914"/><polygon points="9.55 165.33 0 159.82 9.55 154.3 19.1 159.82 9.55 165.33" style="fill:#99414c"/><polygon points="9.55 176.36 0 170.85 0 159.82 9.55 165.33 9.55 176.36" style="fill:#8e1c3a"/><polygon points="6.11 170.41 3.44 168.86 3.44 165.78 6.11 167.32 6.11 170.41" style="fill:#fff"/><path d="M44.29,170.5,8.7,149.94a1.19,1.19,0,0,1,0-2.07l33.84-19.54,37.87,21.86a1.2,1.2,0,0,1,0,2.08L48.84,170.5A4.56,4.56,0,0,1,44.29,170.5Z" style="fill:#97867f;opacity:0.5"/><path d="M43.27,114.08c0-2.26-1.59-3.18-3.55-2L6.43,131.21a2.14,2.14,0,0,0-1,1.68c0,.63.44.88,1,.57l33.3-19.18c.88-.51,1.6-.1,1.6.92v3.73q1-.06,1.95,0Z" style="fill:#99414c"/><path d="M6.41,140.15,39.7,128a7.85,7.85,0,0,0,3.56-6.14v-3q-1,0-1.95,0V123a3.54,3.54,0,0,1-1.6,2.77L6.41,137.9a2.18,2.18,0,0,0-1,1.69C5.44,140.21,5.87,140.46,6.41,140.15Z" style="fill:#99414c"/><polygon points="5.69 140.2 46.19 163.63 80.47 143.18 83.19 139.12 82.91 140.56 82.18 136.79 18.54 139.22 7.32 138.5 5.69 140.2" style="fill:#99414c"/><polygon points="7.03 133.13 7.02 138.11 46.16 160.75 47.22 156 7.03 133.13" style="fill:#f2e2df"/><polygon points="82.69 135.19 42.26 111.8 5.8 133 5.73 133.52 46.22 156.95 82.69 135.19" style="fill:#99414c"/><path d="M69.8,147.2l9.51-5.63a3.59,3.59,0,0,0,1.43-2.66v-.74c0-.61-.25-1-.64-1.11L61.39,147.47l-15.24,8.24v5Z" style="fill:#f2e2df"/><path d="M47.52,156.17,7.34,132.93l-.85-.49L5.71,132a1.93,1.93,0,0,0-.26.9.71.71,0,0,0,.28.63h0L46.22,157Z" style="fill:#99414c"/><polygon points="45.68 163.34 46.19 163.63 46.28 163.47 45.97 163.22 45.68 163.34" style="fill:#fff"/><polygon points="45.7 156.64 46.21 156.94 46.08 156.66 45.7 156.64" style="fill:#fff"/><path d="M46.92,154.63l33.29-19.18c2-1.13,3.55-.21,3.55,2.06v.74a7.86,7.86,0,0,1-3.56,6.15L46.9,163.58c-.53.31-1,.06-1-.57a2.14,2.14,0,0,1,1-1.68L80.2,142.15a3.56,3.56,0,0,0,1.6-2.77v-.75c0-1-.72-1.44-1.6-.93L46.92,156.88c-.54.31-1,.06-1-.56A2.16,2.16,0,0,1,46.92,154.63Z" style="fill:#99414c"/><path d="M45.93,163a2.14,2.14,0,0,1,1-1.68L80.2,142.15a3.56,3.56,0,0,0,1.6-2.77v-.75c0-.67-.31-1.07-.77-1.13a1.31,1.31,0,0,1,.23.82v.75a3.53,3.53,0,0,1-1.61,2.77L46.37,161a2.13,2.13,0,0,0-1,1.69c0,.47.25.72.6.69A1.09,1.09,0,0,1,45.93,163Z" style="fill:#fff"/><path d="M45.94,156.32a2.16,2.16,0,0,1,1-1.69l33.29-19.18a2.7,2.7,0,0,1,2.23-.37,2.34,2.34,0,0,0-2.76.06L46.39,154.32a2.16,2.16,0,0,0-1,1.69c0,.47.25.73.61.69A.86.86,0,0,1,45.94,156.32Z" style="fill:#fff"/><polygon points="30.55 135.65 48.91 125.07 64.84 134.29 46.48 144.87 30.55 135.65" style="fill:#fff"/><path d="M76,186.84c7.35,4.24,19.28,4.24,26.63,0s7.35-11.13,0-15.38-19.28-4.24-26.63,0S68.62,182.59,76,186.84Zm7.19-11.22a13.54,13.54,0,0,1,12.24,0c3.39,1.95,3.38,5.11,0,7.06a13.47,13.47,0,0,1-12.24,0C79.78,180.73,79.78,177.57,83.16,175.62Z" style="fill:#97867f;opacity:0.5"/><path d="M105.38,169l-6.72.1a7.24,7.24,0,0,0-2.12-1.78,16.25,16.25,0,0,0-13.53-.5L79,163l-6.14.09c.3-.19.61-.39.94-.58,8.54-4.93,22.39-4.93,30.93,0a16.4,16.4,0,0,1,3.84,3Z" style="fill:#5a1b16"/><polygon points="72.88 153.36 72.88 163.11 79.02 163.02 79.02 153.26 72.88 153.36" style="fill:#8e1c3a"/><polygon points="83.01 157.02 83.01 166.77 79.02 163.02 79.02 153.26 83.01 157.02" style="fill:#5a1b16"/><path d="M98.66,159.3v9.75l-8.84-7.2L83,166.77V157l6.27-3s8.64,2.64,9.09,2.75S98.66,159.3,98.66,159.3Z" style="fill:#5a1b16"/><polygon points="105.38 159.19 105.38 168.95 98.66 169.05 98.66 159.3 105.38 159.19" style="fill:#5a1b16"/><polygon points="108.59 155.77 108.59 165.52 105.38 168.95 105.38 159.19 108.59 155.77" style="fill:#8e1c3a"/><path d="M105.38,159.19l-6.72.11a7.09,7.09,0,0,0-2.12-1.78c-3.7-2.14-9.5-2.3-13.53-.5l-4-3.76-6.14.1c.3-.2.61-.39.94-.58,8.54-4.94,22.39-4.94,30.93,0a16.16,16.16,0,0,1,3.84,3Z" style="fill:#8e3833"/><path d="M81,158.22v9l-5.81-1.39s.34-5.25.46-5.39S81,158.22,81,158.22Z" style="fill:#751914"/><path d="M85.39,167.18v9.76l-.63.67-4.1-2.37s.64-7.44.71-7.59A39.1,39.1,0,0,1,85.39,167.18Z" style="fill:#5a1b16"/><path d="M77.47,164.67,81,168c-2.93,2.32-2.58,5.58,1,7.68a12.62,12.62,0,0,0,3.36,1.29l-3.63,3.87,3.22,3a29.57,29.57,0,0,1-11.16-3.45c-7.34-4.24-8.37-10.74-3.08-15.62Z" style="fill:#751914"/><polygon points="84.98 174.08 84.98 183.84 77 180.76 67.42 171.61 67.45 161.25 77.6 169.29 84.98 174.08" style="fill:#751914"/><path d="M77.47,154.91,81,158.22c-2.93,2.31-2.58,5.58,1,7.67a12.62,12.62,0,0,0,3.36,1.29l-3.63,3.87,3.22,3a29.22,29.22,0,0,1-11.16-3.45c-7.34-4.24-8.37-10.74-3.08-15.61Z" style="fill:#b3836f"/><path d="M85,180.76l3.2-3.41a15.38,15.38,0,0,0,8.34-1.7c2.35-1.36,3.32-3.22,2.91-5l7.63-.11,2.93-3.13c2.56,4.4.81,9.46-5.26,13-4.46,2.57-10.38,3.8-16.22,3.68Z" style="fill:#751914"/><polygon points="88.53 174.32 88.53 184.07 111.15 171.54 111.15 161.78 107.85 163.11 88.53 174.32" style="fill:#751914"/><polygon points="85 171 85 180.76 88.53 184.07 88.53 174.32 85 171" style="fill:#5a1b16"/><path d="M85,171l3.2-3.41a15.29,15.29,0,0,0,8.34-1.7c2.35-1.36,3.32-3.21,2.91-5l7.63-.12,2.93-3.12c2.56,4.4.81,9.45-5.26,13-4.46,2.58-10.38,3.81-16.22,3.69Z" style="fill:#99414c"/></svg>