<?xml version="1.0" encoding="utf-8"?>
<!-- Generator: Adobe Illustrator 19.2.1, SVG Export Plug-In . SVG Version: 6.00 Build 0)  -->
<svg version="1.1" id="layer" xmlns="http://www.w3.org/2000/svg" xmlns:xlink="http://www.w3.org/1999/xlink" x="0px" y="0px"
	 viewBox="0 0 652 652" style="enable-background:new 0 0 652 652;" xml:space="preserve">
<style type="text/css">
	.st0{fill:#00324C;}
	.st1{fill:#89C7E5;}
</style>
<polygon class="st0" points="321,366.5 290.4,327.2 317.6,292.5 302.1,292.5 282.6,317.2 263.4,292.5 248.1,292.5 275,326.9 
	243.9,366.5 259.4,366.5 282.8,336.8 306,366.5 "/>
<g>
	<path class="st0" d="M154.8,274.3v18.1c-4.5-1-8.7-1.4-14.1-1.4c-25.3,0-42.2,17.1-42.2,39.8c0,22.8,15.2,37.5,42,37.5
		c11.2,0,21.3-2.5,26.9-5.4v-88.6H154.8 M154.8,356.2c-3.5,1.1-8.4,1.9-13.2,1.9c-20.1,0-30-10.3-30-27.5
		c0-20.2,14.4-29.3,29.8-29.3c5.8,0,9.2,0.6,13.4,1.9V356.2z"/>
	<path class="st0" d="M245,361.2l-4.4-8.4c-6.9,3.3-12.8,5.3-23.6,5.3c-16.7,0-29.6-10.2-29.9-26h59.7l0.1-3.6
		c0.7-23-13.9-37.4-34.7-37.4c-20.6,0-37.9,15.8-38.2,37.5c-0.4,24.2,16.6,39.8,41,39.8C226.6,368.3,237.5,366,245,361.2 M187.6,322
		c1.4-12.4,12.4-20.9,24.4-20.9c13.6,0,21,10.9,21.5,20.9H187.6z"/>
</g>
<g>
	<path class="st0" d="M451.8,361.2l-4.4-8.4c-6.9,3.3-12.8,5.3-23.6,5.3c-16.7,0-29.6-10.2-29.9-26h59.7l0.1-3.6
		c0.7-23-13.9-37.4-34.7-37.4c-20.6,0-37.9,15.8-38.2,37.5c-0.4,24.2,16.7,39.8,41,39.8C433.3,368.3,444.2,366,451.8,361.2
		 M394.4,322c1.4-12.4,12.4-20.9,24.4-20.9c13.6,0,20.9,10.9,21.4,20.9H394.4z"/>
	<path class="st0" d="M91.7,361.2l-4.4-8.4c-6.9,3.3-12.8,5.3-23.6,5.3c-16.7,0-29.5-10.2-29.9-26h59.7l0.1-3.6
		c0.7-23-13.9-37.4-34.7-37.4c-20.6,0-37.9,15.8-38.2,37.5c-0.4,24.2,16.7,39.8,41,39.8C73.3,368.3,84.2,366,91.7,361.2 M34.3,322
		c1.4-12.4,12.4-20.9,24.4-20.9c13.6,0,21,10.9,21.4,20.9H34.3z"/>
</g>
<g>
	<path class="st0" d="M383.3,361.2l-4.8-8.7c-5.4,3.1-14.7,5.4-21.5,5.4c-17.9,0-27.4-10.6-27.6-28.4c-0.2-17,10.3-28,28.1-28
		c6.4,0,13.4,1.5,20.3,5.2l4.6-9c-4.8-3.3-14.4-6.7-25.1-6.7c-29.4,0-41.3,20.5-41.1,39.6c0.2,18.8,11.8,37.7,40,37.7
		C361.9,368.3,372.3,367.4,383.3,361.2"/>
</g>
<g>
	<path class="st0" d="M480.3,357.8l4.3,8.1c-1.1,0.6-7,2.4-11.1,2.4c-9.6,0-13.4-5.1-13.4-13.8v-80.1h12.6v77
		C472.7,358.8,475.4,358.9,480.3,357.8"/>
	<path class="st1" d="M540.3,268.1c1.5,1.5,2.4,11.1,2.4,13.4c0,2.3-0.9,11.9-2.4,13.4c-1.5,1.5-11.1,2.4-13.4,2.4
		c-2.3,0-11.9-0.9-13.4-2.4c-1.5-1.5-2.4-11.1-2.4-13.4c0-2.3,0.9-11.9,2.4-13.4c1.5-1.5,11.1-2.4,13.4-2.4
		C529.2,265.7,538.8,266.6,540.3,268.1"/>
</g>
<g>
	<path class="st1" d="M618.2,345.9c1.5,1.5,2.4,11.1,2.4,13.4c0,2.3-0.9,11.9-2.4,13.4c-1.5,1.5-11.1,2.4-13.4,2.4
		c-2.3,0-11.9-0.9-13.4-2.4c-1.5-1.5-2.4-11.1-2.4-13.4c0-2.3,0.9-11.9,2.4-13.4c1.5-1.5,11.1-2.4,13.4-2.4
		C607.1,343.5,616.7,344.4,618.2,345.9"/>
	<path class="st1" d="M539.4,307.8c2.3,2.3,3.7,9.2,3.7,12.6c0,3.4-1.4,10.3-3.7,12.6c-2.3,2.3-9.1,3.7-12.6,3.7
		c-3.5,0-10.3-1.4-12.6-3.7c-2.3-2.3-3.6-9.2-3.7-12.6c0-3.4,1.4-10.3,3.7-12.6c2.3-2.3,9.1-3.7,12.6-3.7
		C530.3,304.2,537.2,305.6,539.4,307.8"/>
	<path class="st1" d="M578.5,346.8c2.2,2.3,3.6,9.2,3.6,12.6c0,3.4-1.4,10.3-3.6,12.6c-2.3,2.3-9.2,3.7-12.6,3.7
		c-3.5,0-10.3-1.4-12.6-3.7c-2.3-2.3-3.6-9.1-3.7-12.6c0-3.4,1.4-10.3,3.7-12.6c2.3-2.3,9.1-3.7,12.6-3.7
		C569.4,343.1,576.3,344.5,578.5,346.8"/>
	<path class="st1" d="M580.1,267.4c0.7,0.8,1.2,13.1,1.2,14.3c0,1.1-0.5,13.5-1.2,14.3c-0.8,0.8-13.1,1.2-14.3,1.2
		c-1.2,0-13.5-0.5-14.3-1.2c-0.8-0.8-1.2-13.1-1.2-14.3c0-1.2,0.5-13.5,1.2-14.3c0.8-0.7,13.1-1.2,14.3-1.2
		C567,266.1,579.4,266.6,580.1,267.4"/>
	<path class="st1" d="M619.2,306.2c0.7,0.8,1.2,13.1,1.2,14.3c0,1.1-0.5,13.5-1.2,14.3c-0.8,0.8-13.1,1.2-14.3,1.2
		c-1.1,0-13.5-0.5-14.3-1.2c-0.8-0.8-1.2-13.1-1.2-14.3c0-1.1,0.5-13.5,1.2-14.3c0.7-0.7,13.1-1.2,14.3-1.2
		C606.1,305,618.4,305.5,619.2,306.2"/>
	<path class="st1" d="M579.2,307c1.5,1.5,2.4,11.1,2.4,13.4c0,2.3-0.9,11.9-2.4,13.4c-1.5,1.5-11.1,2.4-13.4,2.4
		c-2.3,0-11.9-0.9-13.4-2.4c-1.5-1.5-2.4-11.1-2.4-13.4c0-2.3,0.9-11.9,2.4-13.4c1.5-1.5,11.1-2.4,13.4-2.4
		C568.1,304.6,577.7,305.5,579.2,307"/>
	<rect x="589.6" y="266.5" class="st1" width="30.2" height="30.2"/>
	<path class="st1" d="M526.9,376c-9.2,0-16.6-7.4-16.6-16.6c0-9.2,7.4-16.6,16.6-16.6c9.2,0,16.6,7.4,16.6,16.6
		C543.5,368.5,536.1,376,526.9,376"/>
</g>
</svg>
