<svg width="70" height="70" viewBox="0 0 70 70" fill="none" xmlns="http://www.w3.org/2000/svg">
<path d="M48.239 24.7284C48.0044 7.1258 30.1598 9.69646 27.2544 10.2317C27.0433 10.2706 26.9149 10.4867 26.9816 10.6904L30.7629 22.2207C30.9362 22.7504 31.4913 23.0572 32.0321 22.9201C41.0387 20.6483 46.6777 23.9931 47.9606 24.8759C48.0791 24.9574 48.2408 24.8722 48.239 24.7284Z" fill="#BDBCBC"/>
<path d="M48.7515 24.7284C48.9861 7.1258 66.8309 9.69646 69.7362 10.2317C69.9473 10.2706 70.0757 10.4867 69.9504 10.8682L66.0666 22.7146C66.0073 22.8942 65.6313 23.0961 65.2677 22.9998C56.0808 20.5717 50.3276 23.9832 49.0299 24.8759C48.9108 24.9574 48.7496 24.8722 48.7515 24.7284Z" fill="#E65000"/>
<path d="M50.4898 14.647C54.6193 3.70137 66.4609 4.08907 68.9025 4.29032C69.131 4.30946 69.2804 4.53665 69.2094 4.75457L67.9987 8.44634C67.9728 8.52659 67.8938 8.5766 67.8104 8.56734C57.2993 7.40116 52.5579 12.2227 50.8015 14.8088C50.6842 14.9822 50.4157 14.8433 50.4898 14.647Z" fill="#69B3E6"/>
<path d="M67.8653 0.465503L67.1381 2.68303C67.1146 2.75464 67.0473 2.80342 66.9714 2.80465C58.5889 2.88985 54.1056 7.29094 52.2214 9.81406C52.0924 9.98692 51.8251 9.8227 51.9214 9.63009C53.5364 6.37726 57.8943 0.110523 67.5227 1.78826e-05C67.7659 -0.00306948 67.9413 0.233996 67.8653 0.465503Z" fill="#FABD34"/>
<path d="M7.56822 70C2.59967 70 0 65.9514 0 61.9516C0 57.9765 2.59967 53.952 7.56822 53.952C11.331 53.952 13.4893 56.2818 13.5795 56.3813C14.0443 56.8936 14.006 57.6857 13.4937 58.1506C12.9837 58.6136 12.1953 58.5772 11.7298 58.0715C11.657 57.9937 10.1759 56.4578 7.56822 56.4578C4.09001 56.4578 2.50525 59.3056 2.50525 61.9516C2.50525 64.6217 4.09001 67.4948 7.56822 67.4948C10.1833 67.4948 11.6996 65.8662 11.7144 65.8495C12.1731 65.3322 12.9646 65.284 13.4826 65.7427C13.9998 66.2021 14.0481 66.9935 13.5887 67.5114C13.4992 67.6127 11.3403 70 7.56822 70Z" fill="#009FE3"/>
<path d="M57.6791 70C52.7105 70 50.1108 65.9514 50.1108 61.9516C50.1108 57.9765 52.7105 53.952 57.6791 53.952C61.4419 53.952 63.6002 56.2818 63.6903 56.3813C64.1552 56.8936 64.1169 57.6857 63.6045 58.1506C63.0945 58.6136 62.3062 58.5772 61.8407 58.0715C61.7678 57.9937 60.2868 56.4578 57.6791 56.4578C54.2002 56.4578 52.6161 59.3056 52.6161 61.9516C52.6161 64.6217 54.2002 67.4948 57.6791 67.4948C60.2942 67.4948 61.8104 65.8662 61.8253 65.8495C62.284 65.3322 63.0754 65.284 63.5934 65.7427C64.1107 66.2021 64.1589 66.9935 63.6996 67.5114C63.61 67.6127 61.4511 70 57.6791 70Z" fill="#009FE3"/>
<path d="M24.7485 50.5525C24.3516 50.5525 23.9608 50.3649 23.7182 50.0136C23.3237 49.445 23.4651 48.6646 24.0336 48.2708C26.2019 46.7669 26.3857 43.9487 26.3642 42.8066L26.3636 42.722V29.8527C26.3636 29.1613 26.9241 28.6001 27.6161 28.6001C28.3076 28.6001 28.8688 29.1613 28.8688 29.8527V42.722C28.8985 44.3055 28.6243 48.1362 25.461 50.329C25.2436 50.4803 24.9949 50.5525 24.7485 50.5525Z" fill="#009FE3"/>
<path d="M57.7538 44.6482C52.7852 44.6482 50.1855 40.5996 50.1855 36.5997C50.1855 32.6246 52.7852 28.6001 57.7538 28.6001C61.5166 28.6001 63.6749 30.93 63.765 31.0294C64.2305 31.5412 64.1916 32.3338 63.6798 32.7987C63.1692 33.2617 62.3815 33.2253 61.916 32.7197C61.8413 32.64 60.3596 31.1053 57.7538 31.1053C54.2756 31.1053 52.6908 33.9538 52.6908 36.5997C52.6908 39.2698 54.2756 42.143 57.7538 42.143C60.364 42.143 61.845 40.5575 61.9067 40.4902C62.3704 39.9835 63.1606 39.9409 63.6724 40.402C64.1836 40.862 64.2317 41.6448 63.7749 42.1596C63.6847 42.2609 61.5252 44.6482 57.7538 44.6482Z" fill="#009FE3"/>
<path d="M20.1927 28.5955C19.5013 28.5955 18.9401 29.156 18.9401 29.8481V38.9602C18.9401 40.7221 17.5066 42.1551 15.7453 42.1551H15.6513C13.8901 42.1551 12.4565 40.7221 12.4565 38.9602V29.8481C12.4565 29.156 11.8959 28.5955 11.2039 28.5955C10.5118 28.5955 9.95126 29.156 9.95126 29.8481V38.9602C9.95126 40.7221 8.51781 42.1551 6.75581 42.1551H6.66262C4.90073 42.1551 3.46778 40.7221 3.46778 38.9602V29.8481C3.46778 29.156 2.9066 28.5955 2.21448 28.5955C1.52309 28.5955 0.961914 29.156 0.961914 29.8481V38.9602C0.961914 42.1031 3.51902 44.6609 6.66262 44.6609H6.75581C8.55424 44.6609 10.1582 43.8212 11.2039 42.5162C12.2491 43.8212 13.8537 44.6609 15.6513 44.6609H15.7453C18.8881 44.6609 21.4452 42.1031 21.4452 38.9602V29.8481C21.4452 29.156 20.8848 28.5955 20.1927 28.5955Z" fill="#009FE3"/>
<path d="M23.2986 53.9379C21.7398 53.9379 20.4908 54.396 19.5297 55.0992V49.2987C19.5297 48.6077 18.9698 48.0472 18.279 48.0472C17.5887 48.0472 17.0288 48.6077 17.0288 49.2987V66.3079C17.0288 66.5097 17.0769 66.708 17.1707 66.8869C17.2368 67.0129 18.8326 69.9657 23.2986 69.9657C25.6082 69.9657 27.5683 69.0785 28.9661 67.4012C30.1841 65.9393 30.8545 63.9966 30.8545 61.9302C30.8545 60.0683 30.2445 58.1848 29.1815 56.7636C28.2171 55.4746 26.4139 53.9379 23.2986 53.9379ZM23.2986 67.4642C21.7151 67.4642 20.6934 66.9369 20.1192 66.4998C19.7415 66.2141 19.5297 65.7602 19.5297 65.2867V59.9701C19.5297 58.8182 20.4508 56.4401 23.2986 56.4401C27.2967 56.4401 28.3536 60.0313 28.3536 61.9302C28.3536 64.5953 26.7713 67.4642 23.2986 67.4642Z" fill="#009FE3"/>
<path d="M40.0489 28.6078C36.9442 28.6078 35.1964 30.1289 34.2784 31.4038C32.9147 33.2972 32.7109 35.4721 32.7109 36.6C32.7109 38.6663 33.382 40.6091 34.6001 42.071C35.9984 43.7483 37.9573 44.6355 40.2668 44.6355C44.0327 44.6355 46.1891 42.2512 46.2793 42.1507C46.7367 41.6333 46.6892 40.8431 46.1719 40.3857C45.6557 39.9269 44.8649 39.9751 44.4074 40.4918C44.3926 40.5078 42.8776 42.1339 40.2668 42.1339C37.3467 42.1339 35.7632 40.1047 35.3335 37.8742H45.799C46.4904 37.8742 47.0497 37.3143 47.0497 36.6235C47.0497 32.6341 44.8847 28.6078 40.0489 28.6078ZM35.2952 35.3721C35.8737 31.3309 39.3099 31.1099 40.0489 31.1099C43.2604 31.1099 44.1852 33.6923 44.4482 35.3721H35.2952Z" fill="#009FE3"/>
<path d="M47.0339 57.0258C46.9678 56.9005 45.3719 53.9477 40.906 53.9477C35.9461 53.9477 33.3501 57.9678 33.3501 61.9399C33.3501 64.0062 34.0212 65.9483 35.2392 67.4103C36.6375 69.0883 38.5964 69.9747 40.906 69.9747C40.9263 69.9747 40.9461 69.9723 40.9665 69.9716C42.4994 69.9599 43.7304 69.503 44.6787 68.8067C44.7219 69.4587 45.2633 69.9747 45.9257 69.9747C46.6159 69.9747 47.1765 69.4148 47.1765 68.7246V57.6061C47.1765 57.4043 47.1271 57.2048 47.0339 57.0258ZM44.6749 63.9427C44.6749 65.0945 43.7538 67.4739 40.906 67.4739C36.9079 67.4739 35.8523 63.8821 35.8523 61.9838C35.8523 59.318 37.4333 56.4492 40.906 56.4492C42.4901 56.4492 43.5118 56.9763 44.086 57.4128C44.4632 57.6993 44.6749 58.1525 44.6749 58.626V63.9427Z" fill="#009FE3"/>
</svg>
