<svg xmlns="http://www.w3.org/2000/svg" viewBox="0 0 1920 1080"><title>Artboard 1</title><rect width="1920" height="1080" style="fill:#5a1b16"/><path d="M1920,234.11v847.21H0V1020.7C21.52,993,49.93,971.88,62.47,964.21c135-82.41,314.65-110.84,490.2-100.41,75.15,4.48,142.44,6.5,178.1-51.62,19.76-32.16,25.57-68.9,52-98.43C824.61,667.17,906.94,649.63,960.67,610c61.71-45.45,77.91-113.6,83-177.4,5.9-73.81,5.26-192.62,120-219.54C1266.58,189,1391.07,216,1454.44,216c136,0,196.68-21,314.59-21C1832,195,1876.85,202.7,1920,234.11Z" style="fill:#fff"/></svg>