<svg xmlns="http://www.w3.org/2000/svg" viewBox="0 0 1920 1080"><title>Artboard 1</title><rect width="1920" height="1080" style="fill:#5a1b16"/><path d="M1920,172.94v908.38H0v-65C21.52,986.57,49.93,964,62.47,955.75c135-88.36,314.65-118.84,490.2-107.66,75.15,4.81,142.44,7,178.1-55.34,19.76-34.48,25.57-73.88,52-105.54,41.81-50,124.14-68.76,177.87-111.21,61.71-48.73,77.91-121.81,83-190.21,5.9-79.14,5.26-206.53,120-235.39,102.92-25.89,227.41,3.14,290.78,3.14,136,0,196.68-22.54,314.59-22.54C1832,131,1876.85,139.25,1920,172.94Z" style="fill:#fff"/></svg>